<svg id="Layer_2" data-name="Layer 2" xmlns="http://www.w3.org/2000/svg" viewBox="0 0 14.01 8.55"><path d="M28.24,15.24s0,0,0-.05v-.3a2,2,0,0,1,0-.42c0-.15,0-.27,0-.42v-.22s0-.08,0-.1a.07.07,0,0,1,.05,0h.84a0,0,0,0,1,0,0v.17h-.43l0,0v.48a0,0,0,0,0,0,0h.48v.15h-.48V15s0,0,0,0,0,0,.05,0h.52v.2h-.85A1.59,1.59,0,0,0,28.24,15.24Z" transform="translate(-27.09 -13.63)"/><path d="M29.43,15.22s0,0,0,0V13.78s0,0,0,0l.07,0h.28s0,0,0,0V15h.37s0,0,0,0a0,0,0,0,0,0,0v.1h-.74C29.45,15.24,29.45,15.22,29.43,15.22Z" transform="translate(-27.09 -13.63)"/><path d="M31.79,17.38a1.15,1.15,0,0,1-.55-.28,1.16,1.16,0,0,1-.32-.49,5.61,5.61,0,0,1-.17-.62,4.82,4.82,0,0,1-.05-.62,1.82,1.82,0,0,1,.15-.77,1.32,1.32,0,0,1,.37-.53,1.64,1.64,0,0,1,.54-.32,2,2,0,0,1,.65-.1.79.79,0,0,1,.22,0,2.29,2.29,0,0,0,.23.1.24.24,0,0,1,.1.1.44.44,0,0,1,0,.15.39.39,0,0,1,0,.15v.1a.42.42,0,0,1-.05.22.29.29,0,0,1-.1.17.44.44,0,0,1-.15.1.4.4,0,0,1-.42-.07.4.4,0,0,1-.1-.3c0-.05,0-.1,0-.12a.35.35,0,0,1,0-.08c.05,0,.05,0,.07,0a.44.44,0,0,0,.08-.1v0s0,0,0-.05h-.07a1,1,0,0,0-.3.05,1.19,1.19,0,0,0-.25.13l-.05.05s0,0,0,.05v0s0,.07,0,.1a.14.14,0,0,1,0,.1v.07a2.56,2.56,0,0,1-.05.27v.28a1.16,1.16,0,0,0,0,.32,1.63,1.63,0,0,0,.05.35c0,.07,0,.17,0,.25a.57.57,0,0,0,0,.24.54.54,0,0,0,.1.23.69.69,0,0,0,.17.17.71.71,0,0,0,.3.1.49.49,0,0,0,.35-.15,1,1,0,0,0,.2-.39s0-.08,0-.1,0-.08,0-.1,0-.05.05-.08,0,0,.1,0a.31.31,0,0,1,.17,0c.05,0,.05.07.05.12a.44.44,0,0,1,0,.15,1.38,1.38,0,0,1-.08.17.54.54,0,0,1-.1.2.61.61,0,0,1-.1.18,1.88,1.88,0,0,1-.2.2,1,1,0,0,1-.27.17,1.12,1.12,0,0,1-.32.12,1,1,0,0,1-.3,0h-.05Z" transform="translate(-27.09 -13.63)"/><path d="M33.78,17.35c-.05,0-.08,0-.08-.07s0-.1,0-.15a2.24,2.24,0,0,1,0-.35c0-.12,0-.22,0-.32V14.6a5.16,5.16,0,0,0,0-.68s0,0,0-.07,0-.07.07-.1a.84.84,0,0,1,.2-.05h.3l.3,0a.08.08,0,0,0,.05,0h0a.05.05,0,0,1,.05.05v.12a2.42,2.42,0,0,1,0,.38,1.54,1.54,0,0,0,0,.37v1.44c0,.25,0,.5,0,.75,0,0,0,0,0,.05s0,0,0,.05,0,0,.05,0h.84a.22.22,0,0,1,.08,0s0,0,0,0v.19a.07.07,0,0,1,0,0,.2.2,0,0,0-.1,0h-.87c-.07,0-.12,0-.2,0l-.22,0h-.32S33.83,17.38,33.78,17.35Z" transform="translate(-27.09 -13.63)"/><path d="M37.5,17.4s-.12,0-.19,0a1.23,1.23,0,0,1-.33,0l-.32-.07a1.05,1.05,0,0,1-.3-.15.54.54,0,0,1-.22-.2.85.85,0,0,1-.18-.27,2.07,2.07,0,0,1-.1-.33,2,2,0,0,1,0-.34,2.11,2.11,0,0,1,0-.35v-.35a2.24,2.24,0,0,1,0-.35v-.84a1.89,1.89,0,0,0,0-.23,1,1,0,0,1,0-.22h0a.18.18,0,0,1,.12,0l.1,0h.5c.05,0,.07,0,.1,0v.1a.75.75,0,0,1,0,.24.9.9,0,0,0,0,.23,3.7,3.7,0,0,0-.05.59v.53a1.71,1.71,0,0,1,0,.39,2.42,2.42,0,0,0,0,.38,1.21,1.21,0,0,0,0,.34.61.61,0,0,0,.2.33A.53.53,0,0,0,37,17a.39.39,0,0,0,.15,0,.28.28,0,0,0,.22-.07.68.68,0,0,0,.18-.2.93.93,0,0,0,.1-.25,1.19,1.19,0,0,0,0-.25V16a3.55,3.55,0,0,0,.05-.57c0-.2,0-.43,0-.63a4,4,0,0,0,0-.59,3.21,3.21,0,0,0-.05-.55l.05,0,.1,0s.08,0,.1,0h.4s0,.07,0,.1,0,0,0,.07V16c0,.08,0,.18,0,.25a1.63,1.63,0,0,1-.07.5,1,1,0,0,1-.27.39.88.88,0,0,1-.25.18Z" transform="translate(-27.09 -13.63)"/><path d="M38.87,17.3h0a.5.5,0,0,0,0-.17v-.35c0-.3,0-.62,0-.92s0-.62,0-.92v-.67a1.51,1.51,0,0,1,0-.3.43.43,0,0,1,.05-.19.29.29,0,0,1,.13-.08h.12a.69.69,0,0,1,.25,0l.18,0h.17a.49.49,0,0,1,.2,0,.31.31,0,0,1,.17.05.76.76,0,0,1,.18.09.64.64,0,0,1,.14.15s0,.1.1.18a1.09,1.09,0,0,1,.15.52,1,1,0,0,1-.05.3.71.71,0,0,1-.15.3.23.23,0,0,0-.09.07s0,.05,0,.1,0,.05,0,.07a.11.11,0,0,0,.1.05s0,0,.07.05.08,0,.1.08a1.49,1.49,0,0,1,.23.37.84.84,0,0,1,.07.32.7.7,0,0,1-.07.33.77.77,0,0,1-.23.25,1.37,1.37,0,0,1-.34.19,2.7,2.7,0,0,1-.43.13.39.39,0,0,1-.15,0h-.14a2,2,0,0,1-.33,0,1,1,0,0,0-.3,0c-.05,0-.1,0-.12,0S38.92,17.33,38.87,17.3Zm.82-.42a.26.26,0,0,0,.2.05.53.53,0,0,0,.2-.05.23.23,0,0,0,.12-.12,2.07,2.07,0,0,0,.08-.2.9.9,0,0,0,0-.23.63.63,0,0,0-.1-.39.43.43,0,0,0-.37-.15.39.39,0,0,0-.15,0s-.07,0-.1.08,0,.07,0,.12v.13a1.94,1.94,0,0,0,0,.34c0,.13,0,.23,0,.33l0,.05S39.69,16.88,39.69,16.88Zm-.12-1.56s0,0,0,0h.05a.47.47,0,0,0,.22-.1,1.29,1.29,0,0,0,.15-.17.72.72,0,0,0,.12-.25.74.74,0,0,0,.05-.25.5.5,0,0,0,0-.17l-.08-.15a.27.27,0,0,0-.15-.1.42.42,0,0,0-.22-.05.16.16,0,0,0-.15.07.47.47,0,0,0,0,.18v1Z" transform="translate(-27.09 -13.63)"/><path d="M27.09,17.35V15.84s0,0,0-.05h.05a.79.79,0,0,1,.2,0,.87.87,0,0,1,.22,0,1.21,1.21,0,0,1,.25.08A.36.36,0,0,1,28,16a.42.42,0,0,1,.07.12c0,.05,0,.1.05.13a.22.22,0,0,1,0,.14v.13a1,1,0,0,1-.05.27.56.56,0,0,1-.18.25s-.05,0-.05.05-.05,0-.07.05a1.3,1.3,0,0,0-.15.1l-.17.07-.15,0a.39.39,0,0,1-.15,0S27.14,17.38,27.09,17.35Zm.3-.2h0a.12.12,0,0,0,.12-.07.37.37,0,0,0,.1-.17l.07-.23a.56.56,0,0,0,0-.22.4.4,0,0,0,0-.2.15.15,0,0,0,0-.12s-.05-.05-.05-.08-.05,0-.05,0l-.08,0h-.15l0,0v1.07a0,0,0,0,1,0,0Z" transform="translate(-27.09 -13.63)"/><path d="M28.34,17.38a.06.06,0,0,0,0-.05V17a2.27,2.27,0,0,1,0-.45c0-.15,0-.3,0-.45v-.22s0-.08,0-.1a.07.07,0,0,1,.05,0h.86a0,0,0,0,1,0,0V16h-.45l0,0v.47a0,0,0,0,0,0,0h.5v.15h-.52v.5s0,0,0,0a.06.06,0,0,1,.05,0h.52v.2H28.34Z" transform="translate(-27.09 -13.63)"/><path d="M29.58,17.38s0,0,0,0V15.86s0,0,0,0l.07,0h.28a0,0,0,0,1,0,0V17.2h.4s0,0,0,0,0,0,0,0v.1h-.77S29.6,17.38,29.58,17.38Z" transform="translate(-27.09 -13.63)"/><path d="M28.88,22.1s-.07-.05-.1-.1-.07-.12-.1-.2-.05-.15-.07-.25l-.08-.22-.64-1.74a.06.06,0,0,0,0-.05s0-.05,0-.1,0-.07,0-.1a.12.12,0,0,0,0-.05c-.05-.12-.1-.27-.15-.42s-.1-.27-.15-.42h0s0,0,0,0h1s0,0,0,0a2.38,2.38,0,0,1,.13.29c0,.1.07.2.1.3a7.22,7.22,0,0,1,.27.67c.08.23.18.45.25.7,0,0,0,0,0,0s0,0,0-.07a24725056409677.9,24725056409677.9,0,0,0,.1-.3s0-.07,0-.1v-.07c0-.05,0-.1,0-.15s0-.1,0-.15,0-.08,0-.08a.61.61,0,0,0,0-.14,1.89,1.89,0,0,1,.05-.23c0-.07,0-.17.05-.25s.05-.17.07-.22a1.38,1.38,0,0,1,.08-.17.26.26,0,0,1,.05-.08h.32s0,0,0,0v.1a1.26,1.26,0,0,1-.05.24c0,.13-.07.28-.1.45s-.09.37-.14.57a6.43,6.43,0,0,1-.18.65,5.61,5.61,0,0,1-.17.62c-.05.2-.1.37-.15.52a3.62,3.62,0,0,0-.1.37c0,.1-.05.15-.05.15a.11.11,0,0,1-.07,0H29A.21.21,0,0,0,28.88,22.1Z" transform="translate(-27.09 -13.63)"/><path d="M30.62,22.07s0-.07,0-.1v-.84c0-.42,0-.89,0-1.34s0-.9,0-1.32c0,0,0,0,0,0H31a1.66,1.66,0,0,0,.28-.05h.1c.05,0,.07,0,.07.05a.44.44,0,0,1,0,.2.42.42,0,0,1,0,.19c0,.08,0,.13,0,.2a4.43,4.43,0,0,1,0,.62v2.41a.39.39,0,0,1-.2.05c-.1,0-.2,0-.27,0h-.17C30.7,22.15,30.65,22.07,30.62,22.07Z" transform="translate(-27.09 -13.63)"/><path d="M31.91,22h0v-.39a2.42,2.42,0,0,0,0-.48V18.47s0-.07.07-.1a.47.47,0,0,1,.18,0,.44.44,0,0,1,.17,0,.74.74,0,0,1,.13.08l.49.74c.15.25.32.5.47.77,0,0,0,.08,0,.1l.08.15a.2.2,0,0,0,.1.12.14.14,0,0,0,.1.05s0,0,0-.05,0-.07,0-.09V18.47a.1.1,0,0,1,0-.07s0,0,0,0,.05,0,.1,0,.12,0,.15,0a.1.1,0,0,1,.07.1,1.31,1.31,0,0,0,0,.34v3.13s0,.08,0,.1v0a0,0,0,0,1,0,0l-.42,0a.26.26,0,0,1,0-.08,1,1,0,0,0-.15-.19c-.05-.08-.13-.18-.18-.25l-.19-.28a.78.78,0,0,1-.15-.22.84.84,0,0,0-.1-.12,2.73,2.73,0,0,1-.33-.43c-.1-.15-.19-.29-.29-.42h0s0,0-.05,0v.24c0,.18,0,.35,0,.53a1.37,1.37,0,0,1,0,.27,1,1,0,0,1,0,.3v.62s0,0,0,0h-.27a.15.15,0,0,1-.08,0Z" transform="translate(-27.09 -13.63)"/><path d="M34.9,22.07s0-.07,0-.12v-.2a5.43,5.43,0,0,0,0-.57c0-.17,0-.37,0-.57s0-.6,0-.9,0-.59,0-.89v-.4s0-.05.13-.05l.29,0h.33l.22,0v1.72a2.55,2.55,0,0,0,0,.39c0,.15,0,.28,0,.45v1a.27.27,0,0,1,0,.15c0,.05,0,.05-.12.05h-.7a.08.08,0,0,1-.07,0S34.9,22.1,34.9,22.07Z" transform="translate(-27.09 -13.63)"/><path d="M36.41,22.07s-.07,0-.07-.07,0-.1,0-.15a1.42,1.42,0,0,1,0-.35c0-.12,0-.22,0-.32V19.27c0-.23,0-.45,0-.67,0,0,0-.05,0-.08s0-.07.08-.1a.44.44,0,0,1,.17,0h.32l.3,0s0,0,0,0h0a.05.05,0,0,1,.05.05v.12a1.54,1.54,0,0,1,0,.37,2.42,2.42,0,0,0,0,.38v1.51c0,.25,0,.5,0,.75,0,0,0,0,0,.05s0,0,0,.05,0,0,0,0h.87l.07,0s0,0,0,0V22s0,0,0,0-.08,0-.1,0h-.87c-.07,0-.12,0-.2,0l-.22,0h-.35S36.46,22.1,36.41,22.07Z" transform="translate(-27.09 -13.63)"/><path d="M39.69,22.15a.27.27,0,0,1-.15,0l-.17,0a1.21,1.21,0,0,0-.18-.05L39,22a1.36,1.36,0,0,1-.17-.17c0-.07-.1-.12-.15-.2s-.07-.1-.1-.17a1,1,0,0,1,0-.23c0-.07,0-.14,0-.24s0-.15,0-.2a.61.61,0,0,1,0-.23v-.24a1.89,1.89,0,0,1,0-.4l.07-.38a1.71,1.71,0,0,1,.13-.34.75.75,0,0,1,.2-.3.79.79,0,0,1,.19-.17l.23-.15a.77.77,0,0,1,.25-.1.66.66,0,0,1,.24,0,.4.4,0,0,1,.2,0l.2.07a.58.58,0,0,1,.2.13.91.91,0,0,1,.17.17.58.58,0,0,1,.13.2.75.75,0,0,1,.1.2,2.53,2.53,0,0,1,.22.62,3.07,3.07,0,0,1,.08.67,2.07,2.07,0,0,1-.08.57,2.13,2.13,0,0,1-.2.55.08.08,0,0,0,0,.05s0,0,0,0,0,.08-.05.1a.1.1,0,0,0,0,.05.55.55,0,0,1-.3.25,1.12,1.12,0,0,1-.42.07h-.15Zm0-.47a.15.15,0,0,0,.09,0c.05,0,.08,0,.13,0s.1,0,.12,0a.29.29,0,0,0,.08-.1c0-.05,0-.1,0-.17s0-.15,0-.25a.62.62,0,0,1,0-.17V19.79c0-.08,0-.18,0-.28a1.53,1.53,0,0,0,0-.32,1,1,0,0,0-.13-.27.25.25,0,0,0-.22-.13.92.92,0,0,0-.25.05l-.15.15c0,.05,0,.13-.07.2a.54.54,0,0,0,0,.2.39.39,0,0,1,0,.15v.25a.2.2,0,0,0,0,.1v1a.64.64,0,0,0,0,.22.63.63,0,0,0,.07.22.58.58,0,0,0,.13.2C39.54,21.63,39.59,21.65,39.67,21.68Z" transform="translate(-27.09 -13.63)"/></svg>