<?xml version="1.0" encoding="utf-8"?>
<!-- Generator: Adobe Illustrator 25.2.1, SVG Export Plug-In . SVG Version: 6.00 Build 0)  -->
<svg version="1.1" id="Layer_2" xmlns="http://www.w3.org/2000/svg" xmlns:xlink="http://www.w3.org/1999/xlink" x="0px" y="0px"
	 viewBox="0 0 134 38" style="enable-background:new 0 0 134 38;" xml:space="preserve">
<style type="text/css">
	.st0{fill:#F2E622;}
</style>
<path class="st0" d="M10.5,7.2c0,0,0-0.1-0.1-0.2c0-0.1,0-0.3,0-0.4c0-0.2,0-0.3,0-0.5s0-0.2,0-0.3c0-0.6,0-1.1,0.1-1.7
	c0-0.6,0.1-1.1,0.1-1.7V1.9c0-0.1,0-0.3,0-0.4c0-0.1,0-0.3,0.1-0.4c0,0,0.1-0.1,0.2-0.1c0.1,0,0.2,0,0.2,0c0.4,0,0.8,0,1.2,0
	c0.4,0,0.8,0,1.2,0c0.3,0,0.5,0,0.8,0c0,0,0.1,0,0.1,0.1c0,0.1,0,0.1,0,0.2s0,0.2,0,0.3c0,0.1,0,0.1,0,0.2c0,0,0,0-0.1,0
	c0,0-0.1,0-0.1,0c0,0-0.1,0-0.1,0c-0.1,0-0.1,0-0.2,0c-0.1,0-0.2,0-0.2,0c-0.1,0-0.1,0-0.1,0c0,0,0,0-0.1,0c0,0-0.1,0-0.1,0
	c0,0,0,0-0.1,0c0,0,0,0-0.1,0c-0.1,0-0.2,0-0.3,0c-0.1,0-0.2,0-0.2,0l-0.1,0.1c0,0,0,0.1,0,0.1c0,0.1,0,0.1,0,0.2c0,0.2,0,0.3,0,0.5
	c0,0.2,0,0.3,0,0.5c0,0.1,0,0.2,0,0.3s0,0.2,0,0.3c0,0,0,0.1,0.1,0.1c0,0,0.1,0,0.1,0c0.2,0,0.3,0,0.5,0c0.2,0,0.3,0,0.5,0
	c0.3,0,0.6,0,0.8,0c0,0,0,0.1,0,0.1c0,0.1,0,0.2,0,0.3c0,0,0,0.1,0,0.1c0,0,0,0.1,0,0.1c-0.1,0-0.2,0-0.3,0c-0.1,0-0.2,0-0.3,0
	c-0.2,0-0.4,0-0.6,0c-0.2,0-0.4,0-0.6,0c-0.1,0-0.1,0-0.1,0c0,0,0,0,0,0.1c0,0.2,0,0.4,0,0.6c0,0.2,0,0.4,0,0.5c0,0.2,0,0.3,0,0.4
	c0,0.1,0,0.2,0,0.2c0,0.1,0,0.1,0.1,0.1c0,0,0.1,0,0.2,0.1c0.1,0,0.1,0,0.2,0c0.1,0,0.1,0,0.2,0c0,0,0.1,0,0.2,0c0.1,0,0.2,0,0.4,0
	c0.1,0,0.3,0,0.4,0c0.1,0,0.2,0,0.4,0c0.2,0,0.2,0,0.3,0c0,0,0,0.1,0,0.2c0,0.1,0,0.2,0,0.3c0,0.1,0,0.1,0,0.2c0,0.1,0,0.1,0,0.1
	c-0.2,0-0.4,0-0.5,0s-0.3,0-0.5,0c-0.2,0-0.4,0-0.6,0s-0.4,0-0.6,0c-0.2,0-0.4,0-0.6,0c-0.2,0-0.4,0-0.6,0
	C10.9,7.2,10.7,7.2,10.5,7.2z"/>
<path class="st0" d="M15.3,7.1c-0.1,0-0.1,0-0.1-0.1c0-0.1,0-0.2,0-0.3c0-0.2,0-0.4,0-0.6c0-0.2,0-0.4,0-0.5c0-0.3,0-0.7,0-1
	c0-0.3,0-0.7,0-1c0-0.4,0-0.8,0-1.1c0-0.4,0-0.7,0-1.1c0,0,0-0.1,0-0.1c0-0.1,0-0.1,0.1-0.2c0.1,0,0.2-0.1,0.3-0.1
	c0.2,0,0.3,0,0.5,0c0.2,0,0.3,0,0.5,0c0,0,0,0,0.1,0h0c0,0,0.1,0,0.1,0.1c0,0.1,0,0.1,0,0.2c0,0.2,0,0.4,0,0.6c0,0.2,0,0.4,0,0.6
	c0,0.2,0,0.4,0,0.6c0,0.2,0,0.4,0,0.6c0,0.4,0,0.8,0,1.3c0,0.4,0,0.8,0,1.2c0,0,0,0.1,0,0.1c0,0,0,0,0,0.1c0,0,0.1,0,0.1,0
	c0,0,0.1,0,0.2,0c0.1,0,0.3,0,0.5,0c0.2,0,0.4,0,0.5,0c0.1,0,0.2,0,0.2,0c0.1,0,0.1,0,0.1,0.1c0,0,0,0.1,0.1,0.1c0,0,0,0.1,0,0.2
	c0,0,0,0.1,0,0.1c0,0,0,0.1,0,0.1c0,0,0,0-0.1,0c0,0-0.1,0-0.2,0c-0.1,0-0.1,0-0.2,0c-0.1,0-0.1,0-0.1,0c-0.1,0-0.3,0-0.4,0
	c-0.1,0-0.3,0-0.4,0c-0.1,0-0.2,0-0.3,0c-0.1,0-0.2,0-0.3,0c-0.1,0-0.2,0-0.4,0c-0.1,0-0.2,0-0.4,0c-0.1,0-0.2,0-0.2,0
	C15.4,7.2,15.4,7.1,15.3,7.1z"/>
<path class="st0" d="M24.8,15.8c-0.9-0.2-1.7-0.6-2.2-1.1c-0.6-0.6-1-1.2-1.3-2c-0.3-0.8-0.5-1.6-0.7-2.5c-0.1-0.9-0.2-1.7-0.2-2.5
	c0-1.2,0.2-2.2,0.6-3.1c0.4-0.9,0.9-1.6,1.5-2.1c0.6-0.6,1.4-1,2.2-1.3c0.8-0.3,1.7-0.4,2.6-0.4c0.3,0,0.6,0.1,0.9,0.2
	c0.3,0.1,0.6,0.3,0.9,0.4c0.2,0.1,0.3,0.2,0.4,0.4c0.1,0.2,0.2,0.4,0.2,0.6c0.1,0.2,0.1,0.4,0.1,0.6c0,0.2,0,0.3,0,0.4
	c0,0.4-0.1,0.7-0.2,0.9c-0.1,0.3-0.2,0.5-0.4,0.7c-0.2,0.2-0.4,0.3-0.6,0.4c-0.2,0.1-0.4,0.1-0.7,0.1c-0.4,0-0.8-0.1-1-0.4
	c-0.3-0.3-0.4-0.7-0.4-1.2c0-0.2,0-0.4,0.1-0.5c0.1-0.1,0.1-0.2,0.2-0.3C27,3.2,27,3.1,27.1,3c0.1-0.1,0.2-0.2,0.3-0.4
	c0,0,0-0.1,0-0.1c0-0.1,0-0.1-0.1-0.2c-0.1,0-0.2,0-0.3,0c-0.5,0-0.9,0.1-1.2,0.2c-0.3,0.1-0.7,0.3-1,0.5c-0.1,0.1-0.1,0.1-0.2,0.2
	c0,0.1-0.1,0.1-0.2,0.2c0,0,0,0.1,0,0.2c0,0.1-0.1,0.3-0.1,0.4c0,0.1,0,0.3-0.1,0.4c0,0.1,0,0.2,0,0.3c-0.1,0.4-0.1,0.7-0.2,1.1
	c0,0.4,0,0.7,0,1.1c0,0.4,0,0.9,0.1,1.3c0,0.4,0.1,0.9,0.2,1.4c0,0.3,0.1,0.7,0.1,1c0,0.4,0.1,0.7,0.2,1c0.1,0.3,0.2,0.7,0.4,0.9
	c0.2,0.3,0.4,0.5,0.7,0.7c0.4,0.2,0.8,0.4,1.2,0.4c0.5,0,1-0.2,1.4-0.6c0.4-0.4,0.6-1,0.8-1.6c0-0.1,0.1-0.3,0.1-0.4
	c0-0.2,0.1-0.3,0.1-0.4c0-0.1,0.1-0.2,0.2-0.3c0.1-0.1,0.2-0.1,0.4-0.1c0.3,0,0.5,0.1,0.7,0.2c0.2,0.1,0.2,0.3,0.2,0.5
	c0,0.2,0,0.3-0.1,0.6s-0.2,0.5-0.3,0.7c-0.1,0.3-0.2,0.5-0.4,0.8c-0.1,0.3-0.3,0.5-0.4,0.7c-0.2,0.3-0.5,0.5-0.8,0.8
	c-0.3,0.3-0.7,0.5-1.1,0.7c-0.4,0.2-0.8,0.4-1.3,0.5c-0.4,0.1-0.8,0.2-1.2,0.2c-0.1,0-0.2,0-0.2,0S24.9,15.8,24.8,15.8z"/>
<path class="st0" d="M32.8,15.7c-0.2,0-0.3-0.1-0.3-0.3c0-0.2-0.1-0.4-0.1-0.6c0-0.4,0-0.9,0.1-1.4c0-0.5,0.1-0.9,0.1-1.3
	c0-0.8,0-1.6,0-2.4c0-0.8,0-1.6,0-2.4c0-0.9,0-1.8,0-2.7c0-0.9,0-1.8-0.1-2.7c0-0.1-0.1-0.2-0.1-0.3c0-0.2,0.1-0.3,0.3-0.4
	C33,1.1,33.2,1,33.5,1c0.4,0,0.8,0,1.2,0c0.4,0,0.8,0.1,1.2,0.1c0,0,0.1,0.1,0.2,0.1h0.1c0.1,0,0.2,0.1,0.2,0.2c0,0.1,0,0.3,0,0.5
	c0,0.5,0,1-0.1,1.5c-0.1,0.5-0.1,1-0.1,1.5c0,0.5,0,1,0,1.4c0,0.5,0,1,0,1.4c0,1,0,2,0,3c0,1-0.1,2-0.1,3c0,0.1,0,0.1,0.1,0.2
	c0,0.1,0.1,0.1,0.1,0.2c0.1,0,0.1,0.1,0.2,0.1c0.1,0,0.3,0,0.4,0c0.3,0,0.7,0,1.2,0c0.4,0,0.9,0,1.2,0c0.2,0,0.4,0,0.6,0
	c0.1,0,0.3,0.1,0.3,0.1c0.1,0.1,0.1,0.1,0.1,0.2c0,0.1,0,0.2,0,0.4c0,0.1,0,0.1,0,0.2c0,0.1,0,0.2,0,0.2c0,0-0.1,0.1-0.2,0.1
	c-0.1,0-0.3,0-0.4,0.1c-0.2,0-0.3,0-0.5,0c-0.2,0-0.3,0-0.3,0c-0.3,0-0.7,0-1,0c-0.3,0-0.6,0-1,0c-0.2,0-0.5,0-0.7,0
	c-0.3,0-0.5,0.1-0.8,0.1c-0.3,0-0.6,0.1-0.9,0.1c-0.3,0-0.6,0-0.8,0c-0.2,0-0.4,0-0.5,0C33.2,15.8,33,15.8,32.8,15.7z"/>
<path class="st0" d="M47.8,15.9c-0.2,0-0.5,0.1-0.8,0.1c-0.4,0-0.9,0-1.3-0.1c-0.5-0.1-0.9-0.2-1.3-0.3c-0.4-0.1-0.8-0.3-1.2-0.6
	c-0.4-0.2-0.7-0.5-0.9-0.8c-0.3-0.3-0.5-0.7-0.7-1.1c-0.2-0.4-0.3-0.9-0.4-1.3c-0.1-0.5-0.2-0.9-0.2-1.4c-0.1-0.5-0.1-0.9-0.1-1.4
	c0-0.5,0-0.9,0-1.4c0-0.4,0-0.9,0.1-1.4C41,5.6,41,5.2,41,4.7c0-0.5,0-1,0-1.5C41,3.1,41,3,41,3c0-0.1,0-0.1,0-0.2
	c0.1-0.3,0.1-0.6,0.2-0.9c0-0.3,0.1-0.6,0.2-0.9h0.1c0.2,0,0.3,0,0.5,0.1c0.2,0.1,0.3,0.1,0.4,0.1c0.1,0,0.2,0,0.5,0
	c0.2,0,0.5,0,0.8,0c0.3,0,0.5,0,0.7,0c0.2,0,0.3,0.1,0.4,0.1c0,0.1,0,0.1,0,0.2c0,0.1,0,0.1,0,0.2c0,0.3,0,0.6-0.1,1
	c-0.1,0.3-0.1,0.6-0.1,0.9c-0.1,0.8-0.2,1.5-0.2,2.4c0,0.8,0,1.5,0,2.1c0,0.5,0,1.1-0.1,1.6c-0.1,0.5-0.1,1-0.1,1.5
	c0,0.5,0.1,1,0.2,1.4c0.1,0.5,0.4,0.9,0.8,1.3c0.2,0.2,0.3,0.3,0.5,0.4c0.2,0.1,0.4,0.1,0.6,0.1c0.4,0,0.7-0.1,0.9-0.3
	c0.3-0.2,0.5-0.5,0.7-0.8c0.2-0.3,0.3-0.6,0.4-1c0.1-0.4,0.1-0.7,0.1-1v-0.4c0-0.1,0-0.2,0-0.3c0-0.1,0-0.2,0-0.2
	c0.1-0.7,0.2-1.5,0.2-2.3c0-0.8,0.1-1.7,0.1-2.5c0-0.8,0-1.6-0.1-2.4c0-0.8-0.1-1.5-0.2-2.2c0,0,0.1-0.1,0.2-0.1
	c0.1,0,0.3-0.1,0.4-0.1c0.1,0,0.3,0,0.4-0.1c0.1,0,0.2,0,0.3,0h1.3C51,0.9,51.1,1,51.1,1.1c0,0.1,0.1,0.2,0.1,0.3c0,0.1,0,0.2,0,0.4
	s0,0.2,0,0.4c0,0.1,0,0.1,0,0.2c0,0.1,0,0.2,0,0.3c0,0.1,0,0.2,0,0.2c0,0.1,0,0.1,0,0.1v7.3c0,0.3,0.1,0.7,0.1,1
	c0,0.7-0.1,1.4-0.3,2c-0.2,0.6-0.6,1.1-1.1,1.6c-0.3,0.3-0.6,0.5-1,0.7C48.6,15.7,48.2,15.8,47.8,15.9z"/>
<path class="st0" d="M53.3,15.5C53.3,15.5,53.3,15.5,53.3,15.5c-0.1,0-0.1,0-0.1,0c0.1-0.2,0.1-0.5,0.1-0.7c0-0.2,0-0.4,0-0.7
	c0-0.2,0-0.4,0-0.7c0-1.2,0-2.5,0.1-3.7c0.1-1.2,0.1-2.5,0.1-3.7c0-0.3,0-0.7,0-1.2c0-0.5,0-1,0-1.5c0-0.4,0-0.8,0.1-1.2
	c0-0.4,0.1-0.6,0.2-0.8c0.1-0.1,0.2-0.2,0.5-0.3C54.2,1,54.5,1,54.8,1c0.3,0,0.7,0,1,0.1c0.3,0,0.6,0.1,0.7,0.1c0.2,0,0.5,0,0.7,0
	c0.3,0,0.5,0,0.8,0.1c0.3,0,0.5,0.1,0.7,0.2c0.2,0.1,0.5,0.2,0.7,0.4c0.3,0.2,0.4,0.4,0.6,0.6c0.1,0.2,0.2,0.4,0.4,0.7
	c0.4,0.7,0.6,1.5,0.6,2.1c0,0.4-0.1,0.8-0.2,1.2c-0.1,0.4-0.3,0.8-0.6,1.2C60,7.8,59.9,7.9,59.8,8c-0.1,0.1-0.1,0.2-0.1,0.4
	c0,0.1,0.1,0.2,0.2,0.3c0.1,0.1,0.2,0.2,0.4,0.2C60.4,9,60.5,9,60.6,9.1c0.1,0.1,0.3,0.2,0.4,0.3c0.4,0.5,0.7,1,0.9,1.5
	c0.2,0.5,0.3,0.9,0.3,1.3c0,0.5-0.1,0.9-0.3,1.3c-0.2,0.4-0.5,0.7-0.9,1c-0.4,0.3-0.8,0.6-1.4,0.8c-0.5,0.2-1.1,0.4-1.7,0.5
	c-0.2,0.1-0.4,0.1-0.6,0.1c-0.2,0-0.4,0-0.6,0c-0.4,0-0.8,0-1.3-0.1c-0.4-0.1-0.8-0.1-1.2-0.1c-0.2,0-0.4,0-0.5-0.1
	C53.7,15.7,53.5,15.6,53.3,15.5z M56.6,13.8c0.2,0.2,0.5,0.2,0.8,0.2c0.3,0,0.5-0.1,0.8-0.2c0.2-0.1,0.4-0.3,0.5-0.5
	c0.1-0.2,0.2-0.5,0.3-0.8c0.1-0.3,0.1-0.6,0.1-0.9c0-0.6-0.1-1.2-0.4-1.6c-0.3-0.4-0.8-0.6-1.5-0.6c-0.2,0-0.4,0-0.6,0.1
	c-0.2,0-0.3,0.1-0.4,0.3c0,0.2-0.1,0.3-0.1,0.5c0,0.2,0,0.3,0,0.5c0,0.5,0,0.9,0.1,1.4c0.1,0.5,0.1,0.9,0.2,1.3c0,0,0.1,0.1,0.2,0.2
	C56.5,13.7,56.6,13.8,56.6,13.8z M56.1,7.5c0,0.1,0.1,0.1,0.2,0.1c0,0,0.1,0,0.1,0c0,0,0.1,0,0.1,0h0c0.3,0,0.6-0.2,0.9-0.4
	C57.6,7,57.8,6.8,58,6.5c0.2-0.3,0.4-0.6,0.5-1c0.1-0.3,0.2-0.7,0.2-1c0-0.2,0-0.5-0.1-0.7c-0.1-0.2-0.2-0.4-0.3-0.6
	c-0.2-0.2-0.3-0.3-0.6-0.4c-0.2-0.1-0.5-0.2-0.9-0.2c-0.3,0-0.5,0.1-0.6,0.3c-0.1,0.2-0.1,0.4-0.1,0.7c0,0.1,0,0.3,0,0.4
	c0,0.1,0,0.3,0,0.4c0,0.4,0,0.8,0,1.2c0,0.4,0,0.8,0,1.1c0,0.2,0,0.3,0,0.4C56.1,7.2,56.1,7.4,56.1,7.5z"/>
<path class="st0" d="M5.9,15.7c0,0,0,0,0-0.1c0-0.1,0-0.2,0-0.3c0-0.1,0-0.3,0-0.4c0-0.2,0-0.3,0-0.5c0-0.2,0-0.3,0-0.5
	c0-0.1,0-0.3,0-0.3c0-0.5,0-1.1,0-1.6c0-0.5,0-1.1,0-1.6c0-0.1,0-0.2,0-0.3c0-0.1,0-0.2,0-0.3c0-0.1,0-0.2,0-0.2
	c0-0.1,0.1-0.1,0.1-0.2c0,0,0.1,0,0.1,0c0,0,0.1,0,0.1,0c0.2,0,0.5,0,0.8,0.1c0.3,0,0.6,0.1,0.9,0.2S8.6,9.8,8.9,10
	c0.3,0.1,0.5,0.3,0.6,0.4c0.1,0.1,0.2,0.3,0.3,0.5c0.1,0.2,0.1,0.4,0.2,0.5c0.1,0.2,0.1,0.4,0.1,0.6c0,0.2,0,0.3,0,0.5
	c0,0.4-0.1,0.8-0.2,1.1c-0.1,0.4-0.4,0.7-0.7,1c-0.1,0.1-0.2,0.1-0.2,0.2c-0.1,0.1-0.2,0.1-0.3,0.2c-0.2,0.1-0.4,0.3-0.6,0.4
	c-0.2,0.1-0.5,0.2-0.7,0.3c-0.2,0-0.4,0.1-0.6,0.1c-0.2,0.1-0.4,0.1-0.6,0.1C6.2,15.8,6.1,15.8,5.9,15.7z M7.1,14.9
	C7.1,14.9,7.2,14.9,7.1,14.9c0.1,0,0.1,0,0.1,0c0.2,0,0.4-0.1,0.5-0.3c0.2-0.2,0.3-0.4,0.4-0.7c0.1-0.3,0.2-0.6,0.3-0.9
	c0.1-0.3,0.1-0.6,0.1-0.9c0-0.3,0-0.6-0.1-0.8c0-0.3-0.1-0.4-0.2-0.5c-0.1-0.1-0.2-0.2-0.2-0.3c-0.1-0.1-0.2-0.1-0.2-0.2
	c-0.1,0-0.2-0.1-0.3-0.1c-0.1,0-0.2,0-0.4,0c-0.1,0-0.1,0-0.2,0c0,0-0.1,0.1-0.1,0.1c0,0,0,0.1,0,0.1c0,0,0,0.1,0,0.1
	c0,0.1,0,0.1,0,0.2c0,0.1,0,0.1,0,0.2c0,0.6,0,1.1,0,1.6c0,0.5,0,1.1,0,1.6c0,0.2,0,0.3,0,0.5c0,0,0.1,0,0.1,0.1
	C7.1,14.9,7.1,14.9,7.1,14.9z"/>
<path class="st0" d="M10.9,15.8c0,0,0-0.1-0.1-0.2c0-0.1,0-0.3,0-0.5c0-0.2,0-0.3,0-0.5s0-0.2,0-0.3c0-0.6,0-1.2,0.1-1.8
	c0-0.6,0.1-1.2,0.1-1.8v-0.5c0-0.1,0-0.3,0-0.4c0-0.1,0-0.3,0.1-0.4c0,0,0.1-0.1,0.2-0.1c0.1,0,0.2,0,0.2,0c0.4,0,0.9,0,1.3,0
	c0.4,0,0.8,0,1.2,0c0.3,0,0.5,0,0.8,0c0,0,0.1,0,0.1,0.1c0,0.1,0,0.1,0,0.2s0,0.2,0,0.3c0,0.1,0,0.1,0,0.2c0,0,0,0-0.1,0
	c0,0-0.1,0-0.1,0c0,0-0.1,0-0.1,0c-0.1,0-0.1,0-0.2,0c-0.1,0-0.2,0-0.2,0c-0.1,0-0.1,0-0.1,0c0,0,0,0-0.1,0c0,0-0.1,0-0.1,0
	c0,0-0.1,0-0.1,0c0,0,0,0-0.1,0c-0.1,0-0.2,0-0.4,0c-0.1,0-0.2,0-0.2,0l-0.1,0.1c0,0,0,0.1,0,0.1c0,0.1,0,0.1,0,0.2
	c0,0.2,0,0.3,0,0.5c0,0.2,0,0.3,0,0.5c0,0.1,0,0.2,0,0.3s0,0.2,0,0.3c0,0,0,0.1,0.1,0.1c0,0,0.1,0,0.1,0c0.2,0,0.3,0,0.5,0
	c0.2,0,0.3,0,0.5,0c0.3,0,0.6,0,0.9,0c0,0,0,0.1,0,0.1c0,0.1,0,0.2,0,0.3c0,0,0,0.1,0,0.1c0,0,0,0.1,0,0.1c-0.1,0-0.2,0-0.3,0
	c-0.1,0-0.2,0-0.3,0c-0.2,0-0.4,0-0.7,0c-0.2,0-0.4,0-0.7,0c-0.1,0-0.1,0-0.1,0c0,0,0,0.1,0,0.1c0,0.2,0,0.4,0,0.6
	c0,0.2,0,0.4,0,0.6c0,0.2,0,0.3,0,0.4c0,0.1,0,0.2,0,0.3c0,0.1,0,0.1,0.1,0.1c0,0,0.1,0,0.2,0.1c0.1,0,0.1,0,0.2,0
	c0.1,0,0.2,0,0.2,0c0,0,0.1,0,0.2,0c0.1,0,0.2,0,0.4,0c0.1,0,0.3,0,0.4,0c0.1,0,0.3,0,0.4,0c0.2,0,0.3,0,0.3,0c0,0,0,0.1,0,0.2
	c0,0.1,0,0.2,0,0.3c0,0.1,0,0.1,0,0.2c0,0.1,0,0.1,0,0.1c-0.2,0-0.4,0-0.5,0c-0.2,0-0.3,0-0.5,0c-0.2,0-0.4,0-0.6,0
	c-0.2,0-0.4,0-0.6,0c-0.2,0-0.4,0-0.6,0c-0.2,0-0.4,0-0.6,0C11.3,15.8,11.1,15.8,10.9,15.8z"/>
<path class="st0" d="M15.9,15.8c-0.1,0-0.1,0-0.1-0.1c0-0.1,0-0.2,0-0.3c0-0.2,0-0.4,0-0.6c0-0.2,0-0.4,0-0.6c0-0.4,0-0.7,0-1
	c0-0.3,0-0.7,0-1c0-0.4,0-0.8,0-1.2c0-0.4,0-0.8,0-1.2c0,0,0-0.1,0-0.1c0-0.1,0-0.1,0.1-0.2c0.1,0,0.2-0.1,0.3-0.1
	c0.2,0,0.4,0,0.5,0c0.2,0,0.4,0,0.5,0c0,0,0,0,0.1,0h0c0,0,0.1,0,0.1,0.1c0,0.1,0,0.1,0,0.2c0,0.2,0,0.4,0,0.7c0,0.2,0,0.4,0,0.7
	c0,0.2,0,0.4,0,0.6c0,0.2,0,0.4,0,0.6c0,0.4,0,0.9,0,1.3c0,0.4,0,0.9,0,1.3c0,0,0,0.1,0,0.1c0,0,0,0,0,0.1c0,0,0.1,0,0.1,0
	c0,0,0.1,0,0.2,0c0.1,0,0.3,0,0.5,0c0.2,0,0.4,0,0.5,0c0.1,0,0.2,0,0.3,0c0.1,0,0.1,0,0.1,0.1c0,0,0,0.1,0.1,0.1c0,0,0,0.1,0,0.2
	c0,0,0,0.1,0,0.1c0,0,0,0.1,0,0.1c0,0,0,0-0.1,0c0,0-0.1,0-0.2,0c-0.1,0-0.1,0-0.2,0c-0.1,0-0.1,0-0.1,0c-0.1,0-0.3,0-0.4,0
	c-0.1,0-0.3,0-0.4,0c-0.1,0-0.2,0-0.3,0c-0.1,0-0.2,0-0.4,0c-0.1,0-0.2,0-0.4,0c-0.1,0-0.2,0-0.4,0c-0.1,0-0.2,0-0.2,0
	C16,15.8,16,15.8,15.9,15.8z"/>
<path class="st0" d="M13.1,34.8c-0.1-0.1-0.3-0.2-0.4-0.4c-0.1-0.2-0.3-0.5-0.4-0.8c-0.1-0.3-0.2-0.6-0.3-1
	c-0.1-0.3-0.2-0.6-0.3-0.9l-2.6-7c0,0,0-0.1-0.1-0.2c0-0.1-0.1-0.2-0.1-0.4c-0.1-0.1-0.1-0.3-0.1-0.4c0-0.1-0.1-0.2-0.1-0.2
	c-0.2-0.5-0.4-1.1-0.6-1.7c-0.2-0.6-0.4-1.1-0.6-1.7c0,0,0,0,0,0c0,0,0,0,0,0c0-0.1,0-0.1,0.1-0.1c0.1,0,0.2,0,0.3,0
	c0.5,0,1.1,0,1.6,0c0.5,0,1.1,0,1.6,0h0.5c0.1,0,0.1,0,0.2,0c0.1,0,0.1,0,0.1,0.1c0.2,0.4,0.4,0.8,0.5,1.2c0.1,0.4,0.3,0.8,0.4,1.2
	c0.4,0.9,0.8,1.8,1.1,2.7c0.3,0.9,0.7,1.8,1,2.8c0,0.1,0,0.1,0.1,0.1c0.1,0,0.1-0.1,0.2-0.3c0.1-0.2,0.1-0.4,0.2-0.6
	c0.1-0.2,0.1-0.4,0.2-0.6c0-0.2,0.1-0.3,0.1-0.4c0-0.1,0-0.2,0-0.3c0-0.2,0.1-0.4,0.1-0.6c0-0.2,0.1-0.4,0.1-0.6
	c0-0.2,0-0.3,0.1-0.3c0-0.1,0.1-0.3,0.1-0.6c0.1-0.3,0.1-0.6,0.2-0.9c0.1-0.3,0.1-0.7,0.2-1c0.1-0.3,0.2-0.7,0.3-0.9
	c0.1-0.3,0.2-0.5,0.3-0.7c0.1-0.2,0.2-0.3,0.2-0.3h1.3c0.1,0,0.1,0,0.1,0.1c0,0,0,0.1,0,0.1c0,0,0,0.1,0,0.1c0,0,0,0.1,0,0.1
	c0,0,0,0.1,0,0.1c0,0.2-0.1,0.5-0.2,1c-0.1,0.5-0.3,1.1-0.4,1.8c-0.2,0.7-0.4,1.5-0.6,2.3c-0.2,0.8-0.4,1.7-0.7,2.6
	c-0.2,0.9-0.4,1.7-0.7,2.5c-0.2,0.8-0.4,1.5-0.6,2.1c-0.2,0.6-0.3,1.1-0.4,1.5c-0.1,0.4-0.2,0.6-0.2,0.6c0,0-0.1,0.1-0.3,0.1
	c-0.1,0-0.2,0-0.2,0c-0.1,0-0.2,0-0.3,0c-0.1,0-0.2,0-0.3,0c-0.1,0-0.2,0-0.3,0C13.2,34.8,13.1,34.8,13.1,34.8z"/>
<path class="st0" d="M20.1,34.7c-0.1-0.1-0.1-0.3-0.1-0.4c0-0.2,0-0.4,0-0.6c0-0.3,0-0.6,0-0.9c0-0.3,0-0.6,0-0.8c0-0.2,0-0.4,0-0.5
	c0-0.2,0-0.4,0-0.6c0-1.7,0-3.6,0.1-5.4c0.1-1.9,0.1-3.6,0.1-5.3c0-0.1,0-0.1,0.1-0.1h0.3c0.4,0,0.7,0,1,0c0.3,0,0.7-0.1,1.1-0.2
	c0.1,0,0.2,0,0.4,0c0.2,0,0.3,0.1,0.3,0.2c0.1,0.3,0.1,0.5,0.1,0.8c0,0.3,0,0.5-0.1,0.8c0,0.3-0.1,0.5-0.1,0.8c0,0.8,0,1.6-0.1,2.5
	c0,0.9,0,1.7,0,2.6c0,0.9,0,1.7,0,2.6c0,0.8,0,1.6,0,2.4c0,0.3,0,0.7,0,1c0,0.3,0,0.6,0,0.9v0.2c-0.2,0.1-0.5,0.2-0.8,0.2
	c-0.4,0-0.8,0.1-1.1,0.1c-0.2,0-0.5,0-0.7,0S20.2,34.7,20.1,34.7z"/>
<path class="st0" d="M25.3,34.5L25.3,34.5c0-0.1,0-0.2,0-0.3c0-0.1,0-0.3,0-0.4c0-0.2,0-0.3,0-0.5c0-0.2,0-0.3,0-0.4
	c0.1-0.6,0.1-1.2,0.1-1.9c0-0.7,0-1.3,0-2c0-0.4,0-0.8,0-1.2c0-0.4,0-0.8,0-1.2c0-0.5,0-1,0-1.5c0-0.5,0-1,0-1.5s0-1.1,0-1.6
	c0-0.6,0-1.2,0-1.8c0-0.2,0.1-0.3,0.3-0.4c0.2-0.1,0.4-0.1,0.7-0.1c0.3,0,0.5,0,0.7,0.1c0.2,0.1,0.4,0.2,0.5,0.3c0.7,1,1.3,2,2,3
	c0.6,1,1.3,2,1.9,3.1c0.1,0.1,0.1,0.3,0.2,0.4c0.1,0.2,0.2,0.4,0.3,0.6c0.1,0.2,0.2,0.4,0.4,0.5c0.1,0.1,0.3,0.2,0.4,0.2
	c0.1,0,0.1-0.1,0.1-0.2c0-0.1,0.1-0.3,0.1-0.4c0-0.2,0-0.3,0-0.5c0-0.2,0-0.3,0-0.3c0-0.5,0-0.9,0-1.4c0-0.5,0-0.9,0-1.4
	c0-0.3,0-0.6,0-0.9c0-0.3,0-0.6,0-0.9c0-0.2,0-0.5,0-0.7c0-0.2,0-0.5,0-0.7c0-0.1,0-0.2,0-0.3c0-0.1,0-0.2,0.1-0.3
	c0-0.1,0.1-0.1,0.2-0.2c0.1-0.1,0.2-0.1,0.4-0.1c0.2,0,0.5,0,0.6,0.1c0.2,0.1,0.3,0.2,0.3,0.4c0,0.5,0,0.9,0.1,1.4
	c0,0.5,0,0.9,0,1.4c0,0.8,0,1.6,0,2.3c0,0.8,0,1.5,0,2.3c0,0.6,0,1.2,0,1.8c0,0.6,0,1.1,0,1.6c0,0.5,0,0.9,0,1.4c0,0.5,0,0.9,0,1.4
	c0,0.2,0,0.3,0,0.4c0,0.1,0.1,0.3,0.1,0.4c0,0,0,0.1,0,0.1c0,0,0,0.1-0.1,0.1l-1.7-0.1c0,0-0.1-0.1-0.2-0.3
	c-0.1-0.2-0.3-0.5-0.6-0.8c-0.2-0.3-0.5-0.7-0.7-1c-0.3-0.4-0.5-0.7-0.8-1.1c-0.2-0.3-0.5-0.6-0.6-0.9c-0.2-0.3-0.3-0.4-0.4-0.5
	c-0.5-0.5-0.9-1.1-1.3-1.7c-0.4-0.6-0.8-1.2-1.2-1.7c-0.1,0-0.1,0-0.2,0c-0.1,0-0.1,0-0.2,0.1c0,0.1,0,0.2,0,0.3s0,0.3,0,0.4
	c0,0.1,0,0.2,0,0.3c0,0.7,0.1,1.4,0.1,2.1c0,0.3,0,0.7-0.1,1.1c0,0.4,0,0.8-0.1,1.2c0,0.4,0,0.8,0,1.2c0,0.4,0,0.7,0,1.1
	c0,0,0,0,0,0.1s0,0,0,0.1c0,0.1-0.1,0.1-0.2,0.1c-0.1,0-0.3,0-0.5,0c-0.2,0-0.4,0-0.6,0c-0.2,0-0.3-0.1-0.3-0.1L25.3,34.5z"/>
<path class="st0" d="M37.3,34.7c-0.1-0.1-0.1-0.3-0.1-0.5c0-0.2,0-0.3,0-0.4v-0.4c0-0.8,0-1.5-0.1-2.3c0-0.7-0.1-1.5-0.1-2.3
	c0-1.2-0.1-2.4-0.1-3.6c0-1.2-0.1-2.4-0.1-3.6c0-0.3,0-0.5,0-0.8c0-0.3,0-0.5,0-0.8c0-0.1,0.2-0.2,0.5-0.2c0.3,0,0.7-0.1,1.2-0.1
	c0.4,0,0.9,0,1.3,0c0.4,0,0.7,0.1,0.9,0.1c0,0.1,0,0.2,0,0.4c0,0.2,0,0.3,0,0.3c0,0.5,0,1,0,1.5c0,0.5,0,1,0,1.5c0,0.6,0,1.1,0,1.6
	s0,1,0,1.6c0,0.5,0,1.1,0.1,1.6c0,0.6,0.1,1.1,0.1,1.8c0,0,0,0.1,0,0.3c0,0.1,0,0.3,0,0.5c0,0.2,0,0.4,0,0.6c0,0.2,0,0.4,0,0.6
	c0,0.2,0,0.4,0,0.6c0,0.2,0,0.3,0,0.4c0,0.1,0,0.3,0,0.4c0,0.1,0,0.3,0,0.5c0,0.2,0,0.4-0.1,0.6s-0.2,0.2-0.5,0.2h-2.8
	c-0.1,0.1-0.2,0.1-0.3,0.1C37.3,34.8,37.3,34.8,37.3,34.7z"/>
<path class="st0" d="M43.4,34.7c-0.2,0-0.3-0.1-0.3-0.3c0-0.2-0.1-0.4-0.1-0.6c0-0.5,0-0.9,0.1-1.4c0-0.5,0.1-0.9,0.1-1.3
	c0-0.8,0-1.6,0-2.5c0-0.8,0-1.6,0-2.4c0-0.9,0-1.8,0-2.8c0-0.9,0-1.8-0.1-2.7c0-0.1-0.1-0.2-0.1-0.3c0-0.2,0.1-0.3,0.3-0.4
	c0.2-0.1,0.4-0.1,0.7-0.1c0.4,0,0.8,0,1.3,0c0.4,0,0.8,0.1,1.2,0.1c0,0,0.1,0.1,0.2,0.1h0.1c0.1,0,0.2,0.1,0.2,0.2
	c0,0.1,0,0.3,0,0.5c0,0.5,0,1-0.1,1.5c-0.1,0.5-0.1,1-0.1,1.5c0,0.5,0,1,0,1.5c0,0.5,0,1,0,1.5c0,1,0,2.1,0,3.1c0,1-0.1,2-0.1,3
	c0,0.1,0,0.1,0.1,0.2c0,0.1,0.1,0.1,0.1,0.2c0.1,0,0.1,0.1,0.2,0.1c0.1,0,0.3,0,0.5,0c0.3,0,0.7,0,1.2,0c0.5,0,0.9,0,1.2,0
	c0.2,0,0.4,0,0.6,0c0.1,0,0.3,0.1,0.3,0.1c0.1,0.1,0.1,0.1,0.1,0.2c0,0.1,0,0.2,0,0.4c0,0.1,0,0.1,0,0.2c0,0.1,0,0.2,0,0.2
	c0,0-0.1,0.1-0.2,0.1c-0.1,0-0.3,0-0.4,0.1c-0.2,0-0.3,0-0.5,0c-0.2,0-0.3,0-0.3,0c-0.3,0-0.7,0-1,0c-0.3,0-0.6,0-1,0
	c-0.2,0-0.5,0-0.7,0c-0.3,0-0.5,0.1-0.8,0.1c-0.3,0-0.6,0.1-0.9,0.1c-0.3,0-0.6,0-0.9,0c-0.2,0-0.4,0-0.5,0
	C43.8,34.8,43.6,34.8,43.4,34.7z"/>
<path class="st0" d="M56.6,35c-0.2,0-0.4,0-0.6-0.1c-0.2,0-0.5-0.1-0.7-0.1c-0.2-0.1-0.5-0.1-0.7-0.2c-0.2-0.1-0.4-0.2-0.6-0.3
	c-0.3-0.2-0.5-0.5-0.7-0.7c-0.2-0.3-0.4-0.5-0.6-0.8c-0.1-0.2-0.3-0.4-0.4-0.7c-0.1-0.3-0.2-0.6-0.2-0.9c-0.1-0.3-0.1-0.6-0.2-1
	c0-0.3-0.1-0.6-0.1-0.8c-0.1-0.3-0.1-0.6-0.1-0.9c0-0.3,0-0.7,0-1c0-0.5,0-1,0.1-1.6c0.1-0.5,0.2-1,0.3-1.5c0.1-0.5,0.3-1,0.5-1.4
	c0.2-0.5,0.5-0.9,0.8-1.2c0.2-0.2,0.5-0.5,0.8-0.7c0.3-0.2,0.6-0.4,0.9-0.6c0.3-0.2,0.7-0.3,1-0.4c0.3-0.1,0.7-0.1,1-0.1
	s0.6,0,0.8,0.1c0.2,0.1,0.5,0.2,0.8,0.3c0.3,0.1,0.6,0.3,0.8,0.5c0.2,0.2,0.5,0.4,0.7,0.7c0.2,0.2,0.4,0.5,0.5,0.8
	c0.2,0.3,0.3,0.5,0.4,0.8c0.4,0.8,0.7,1.6,0.9,2.5c0.2,0.9,0.3,1.8,0.3,2.7c0,0.8-0.1,1.6-0.3,2.3c-0.2,0.8-0.4,1.5-0.8,2.2
	c0,0-0.1,0.1-0.1,0.2C61.1,33,61,33.1,61,33.2c-0.1,0.1-0.1,0.3-0.2,0.4c-0.1,0.1-0.1,0.2-0.1,0.2c-0.3,0.5-0.7,0.9-1.2,1
	c-0.5,0.2-1.1,0.3-1.7,0.3c-0.2,0-0.4,0-0.6,0C57,35.1,56.8,35,56.6,35z M56.5,33.1c0.1,0.1,0.3,0.1,0.4,0.1c0.2,0,0.3,0.1,0.5,0.1
	c0.2,0,0.4,0,0.5-0.1c0.1-0.1,0.2-0.2,0.3-0.4c0.1-0.2,0.1-0.4,0.2-0.7c0.1-0.3,0.1-0.6,0.2-1c0-0.1,0-0.4,0.1-0.7
	c0-0.3,0-0.7,0-1.1c0-0.4,0-0.8,0-1.2c0-0.4,0-0.8,0-1.1c0,0,0-0.1,0-0.2c0-0.1,0-0.2,0-0.4c0-0.1,0-0.3,0-0.5c0-0.2,0-0.3,0-0.4
	c0-0.3-0.1-0.7-0.1-1.1c0-0.5-0.1-0.9-0.2-1.3c-0.1-0.4-0.3-0.8-0.5-1.1c-0.2-0.3-0.5-0.5-0.9-0.5c-0.4,0-0.7,0.1-1,0.2
	c-0.2,0.2-0.4,0.4-0.6,0.6c-0.1,0.2-0.2,0.5-0.3,0.8c-0.1,0.3-0.1,0.6-0.1,0.8c0,0.2,0,0.4-0.1,0.6c0,0.2,0,0.4,0,0.6
	c0,0.1,0,0.3,0,0.4c0,0.1,0,0.3,0.1,0.4V30c0,0.3,0,0.5,0.1,0.9c0.1,0.3,0.1,0.6,0.3,0.9c0.1,0.3,0.3,0.6,0.5,0.8
	C56,32.9,56.2,33,56.5,33.1z"/>
</svg>
